<svg xmlns="http://www.w3.org/2000/svg" viewBox="0 0 680 280" role="img" aria-label="Pink Elephant">
  <rect width="680" height="280" fill="transparent"/>
  <g transform="translate(32 36)">
    <path d="M48 94c0-48 37-82 90-82h98c53 0 88 35 88 86v64h-48v-51h-29v51h-48v-51h-70v51H80v-38c-41 25-72 15-78-16 32 13 48-2 46-14Z" fill="#f53c48"/>
    <circle cx="248" cy="61" r="7" fill="#fff"/>
    <path d="M306 22c18-17 40-21 62-18-6 30-25 48-60 55" fill="#fff"/>
  </g>
  <text x="327" y="132" font-family="Arial Black, Arial, sans-serif" font-size="80" font-weight="900" fill="#3d4548" stroke="#e9f8d9" stroke-width="8" paint-order="stroke">Pink</text>
  <text x="190" y="212" font-family="Arial Black, Arial, sans-serif" font-size="80" font-weight="900" fill="#3d4548" stroke="#e9f8d9" stroke-width="8" paint-order="stroke">Elephant</text>
  <text x="355" y="258" font-family="Arial Black, Arial, sans-serif" font-size="38" font-weight="900" fill="#f53c48">just for kids</text>
</svg>
